<mxfile host="app.diagrams.net" agent="Mozilla/5.0 (Windows NT 10.0; Win64; x64) AppleWebKit/537.36 (KHTML, like Gecko) Chrome/134.0.0.0 Safari/537.36" version="26.1.1">
  <diagram name="Strona-1" id="WC51SNJC1_WsCre8cb8A">
    <mxGraphModel dx="1593" dy="867" grid="1" gridSize="10" guides="1" tooltips="1" connect="1" arrows="1" fold="1" page="1" pageScale="1" pageWidth="827" pageHeight="1169" math="0" shadow="0">
      <root>
        <mxCell id="0" />
        <mxCell id="1" parent="0" />
        <mxCell id="BGIbfUMVSPYPuRkM84bQ-1" value="" style="rounded=0;whiteSpace=wrap;html=1;" vertex="1" parent="1">
          <mxGeometry x="160" y="310" width="1510" height="370" as="geometry" />
        </mxCell>
        <mxCell id="BGIbfUMVSPYPuRkM84bQ-2" value="System&lt;div&gt;&lt;br&gt;&lt;/div&gt;" style="text;html=1;align=center;verticalAlign=middle;whiteSpace=wrap;rounded=0;" vertex="1" parent="1">
          <mxGeometry x="750" y="320" width="200" height="20" as="geometry" />
        </mxCell>
        <mxCell id="BGIbfUMVSPYPuRkM84bQ-31" style="edgeStyle=orthogonalEdgeStyle;rounded=0;orthogonalLoop=1;jettySize=auto;html=1;curved=1;endArrow=none;startFill=0;" edge="1" parent="1" source="BGIbfUMVSPYPuRkM84bQ-3" target="BGIbfUMVSPYPuRkM84bQ-6">
          <mxGeometry relative="1" as="geometry" />
        </mxCell>
        <mxCell id="BGIbfUMVSPYPuRkM84bQ-32" style="edgeStyle=orthogonalEdgeStyle;rounded=0;orthogonalLoop=1;jettySize=auto;html=1;entryX=0.5;entryY=0;entryDx=0;entryDy=0;endArrow=none;startFill=0;curved=1;" edge="1" parent="1" source="BGIbfUMVSPYPuRkM84bQ-3" target="BGIbfUMVSPYPuRkM84bQ-9">
          <mxGeometry relative="1" as="geometry" />
        </mxCell>
        <mxCell id="BGIbfUMVSPYPuRkM84bQ-33" style="edgeStyle=orthogonalEdgeStyle;rounded=0;orthogonalLoop=1;jettySize=auto;html=1;endArrow=none;startFill=0;" edge="1" parent="1" source="BGIbfUMVSPYPuRkM84bQ-3" target="BGIbfUMVSPYPuRkM84bQ-8">
          <mxGeometry relative="1" as="geometry" />
        </mxCell>
        <mxCell id="BGIbfUMVSPYPuRkM84bQ-3" value="Użytkownik&lt;div&gt;&lt;br&gt;&lt;/div&gt;" style="shape=umlActor;verticalLabelPosition=bottom;verticalAlign=top;html=1;outlineConnect=0;" vertex="1" parent="1">
          <mxGeometry x="430" y="140" width="30" height="60" as="geometry" />
        </mxCell>
        <mxCell id="BGIbfUMVSPYPuRkM84bQ-23" style="edgeStyle=orthogonalEdgeStyle;rounded=0;orthogonalLoop=1;jettySize=auto;html=1;curved=1;endArrow=none;startFill=0;" edge="1" parent="1" source="BGIbfUMVSPYPuRkM84bQ-4" target="BGIbfUMVSPYPuRkM84bQ-15">
          <mxGeometry relative="1" as="geometry" />
        </mxCell>
        <mxCell id="BGIbfUMVSPYPuRkM84bQ-24" style="edgeStyle=orthogonalEdgeStyle;rounded=0;orthogonalLoop=1;jettySize=auto;html=1;endArrow=none;startFill=0;" edge="1" parent="1" source="BGIbfUMVSPYPuRkM84bQ-4" target="BGIbfUMVSPYPuRkM84bQ-13">
          <mxGeometry relative="1" as="geometry" />
        </mxCell>
        <mxCell id="BGIbfUMVSPYPuRkM84bQ-25" style="edgeStyle=orthogonalEdgeStyle;rounded=0;orthogonalLoop=1;jettySize=auto;html=1;entryX=1;entryY=0;entryDx=0;entryDy=0;curved=1;endArrow=none;startFill=0;" edge="1" parent="1" source="BGIbfUMVSPYPuRkM84bQ-4" target="BGIbfUMVSPYPuRkM84bQ-11">
          <mxGeometry relative="1" as="geometry" />
        </mxCell>
        <mxCell id="BGIbfUMVSPYPuRkM84bQ-28" style="edgeStyle=orthogonalEdgeStyle;rounded=0;orthogonalLoop=1;jettySize=auto;html=1;endArrow=none;startFill=0;curved=1;" edge="1" parent="1" source="BGIbfUMVSPYPuRkM84bQ-4" target="BGIbfUMVSPYPuRkM84bQ-27">
          <mxGeometry relative="1" as="geometry" />
        </mxCell>
        <mxCell id="BGIbfUMVSPYPuRkM84bQ-4" value="administrator&lt;div&gt;&lt;br&gt;&lt;/div&gt;" style="shape=umlActor;verticalLabelPosition=bottom;verticalAlign=top;html=1;outlineConnect=0;" vertex="1" parent="1">
          <mxGeometry x="910" y="110" width="30" height="60" as="geometry" />
        </mxCell>
        <mxCell id="BGIbfUMVSPYPuRkM84bQ-20" style="edgeStyle=orthogonalEdgeStyle;rounded=0;orthogonalLoop=1;jettySize=auto;html=1;entryX=0.5;entryY=0;entryDx=0;entryDy=0;endArrow=none;startFill=0;curved=1;" edge="1" parent="1" source="BGIbfUMVSPYPuRkM84bQ-5" target="BGIbfUMVSPYPuRkM84bQ-19">
          <mxGeometry relative="1" as="geometry" />
        </mxCell>
        <mxCell id="BGIbfUMVSPYPuRkM84bQ-21" style="edgeStyle=orthogonalEdgeStyle;rounded=0;orthogonalLoop=1;jettySize=auto;html=1;entryX=0.5;entryY=0;entryDx=0;entryDy=0;endArrow=none;startFill=0;curved=1;" edge="1" parent="1" source="BGIbfUMVSPYPuRkM84bQ-5" target="BGIbfUMVSPYPuRkM84bQ-16">
          <mxGeometry relative="1" as="geometry" />
        </mxCell>
        <mxCell id="BGIbfUMVSPYPuRkM84bQ-50" style="edgeStyle=orthogonalEdgeStyle;rounded=0;orthogonalLoop=1;jettySize=auto;html=1;entryX=0.5;entryY=0;entryDx=0;entryDy=0;entryPerimeter=0;" edge="1" parent="1" source="BGIbfUMVSPYPuRkM84bQ-5" target="BGIbfUMVSPYPuRkM84bQ-4">
          <mxGeometry relative="1" as="geometry" />
        </mxCell>
        <mxCell id="BGIbfUMVSPYPuRkM84bQ-5" value="Technik" style="shape=umlActor;verticalLabelPosition=bottom;verticalAlign=top;html=1;outlineConnect=0;" vertex="1" parent="1">
          <mxGeometry x="1370" y="130" width="50" height="60" as="geometry" />
        </mxCell>
        <mxCell id="BGIbfUMVSPYPuRkM84bQ-34" style="edgeStyle=orthogonalEdgeStyle;rounded=0;orthogonalLoop=1;jettySize=auto;html=1;entryX=0.5;entryY=0;entryDx=0;entryDy=0;endArrow=none;startFill=0;" edge="1" parent="1" source="BGIbfUMVSPYPuRkM84bQ-6" target="BGIbfUMVSPYPuRkM84bQ-10">
          <mxGeometry relative="1" as="geometry" />
        </mxCell>
        <mxCell id="BGIbfUMVSPYPuRkM84bQ-6" value="" style="ellipse;whiteSpace=wrap;html=1;" vertex="1" parent="1">
          <mxGeometry x="200" y="350" width="130" height="50" as="geometry" />
        </mxCell>
        <mxCell id="BGIbfUMVSPYPuRkM84bQ-8" value="" style="ellipse;whiteSpace=wrap;html=1;" vertex="1" parent="1">
          <mxGeometry x="349" y="350" width="130" height="50" as="geometry" />
        </mxCell>
        <mxCell id="BGIbfUMVSPYPuRkM84bQ-9" value="" style="ellipse;whiteSpace=wrap;html=1;" vertex="1" parent="1">
          <mxGeometry x="500" y="350" width="130" height="50" as="geometry" />
        </mxCell>
        <mxCell id="BGIbfUMVSPYPuRkM84bQ-10" value="" style="ellipse;whiteSpace=wrap;html=1;" vertex="1" parent="1">
          <mxGeometry x="240" y="490" width="150" height="50" as="geometry" />
        </mxCell>
        <mxCell id="BGIbfUMVSPYPuRkM84bQ-30" style="edgeStyle=orthogonalEdgeStyle;rounded=0;orthogonalLoop=1;jettySize=auto;html=1;entryX=0.5;entryY=0;entryDx=0;entryDy=0;endArrow=none;startFill=0;" edge="1" parent="1" source="BGIbfUMVSPYPuRkM84bQ-11" target="BGIbfUMVSPYPuRkM84bQ-12">
          <mxGeometry relative="1" as="geometry" />
        </mxCell>
        <mxCell id="BGIbfUMVSPYPuRkM84bQ-11" value="" style="ellipse;whiteSpace=wrap;html=1;" vertex="1" parent="1">
          <mxGeometry x="690" y="360" width="130" height="50" as="geometry" />
        </mxCell>
        <mxCell id="BGIbfUMVSPYPuRkM84bQ-12" value="" style="ellipse;whiteSpace=wrap;html=1;" vertex="1" parent="1">
          <mxGeometry x="680" y="470" width="130" height="50" as="geometry" />
        </mxCell>
        <mxCell id="BGIbfUMVSPYPuRkM84bQ-29" style="edgeStyle=orthogonalEdgeStyle;rounded=0;orthogonalLoop=1;jettySize=auto;html=1;entryX=0.5;entryY=0;entryDx=0;entryDy=0;endArrow=none;startFill=0;" edge="1" parent="1" source="BGIbfUMVSPYPuRkM84bQ-13" target="BGIbfUMVSPYPuRkM84bQ-14">
          <mxGeometry relative="1" as="geometry" />
        </mxCell>
        <mxCell id="BGIbfUMVSPYPuRkM84bQ-13" value="" style="ellipse;whiteSpace=wrap;html=1;" vertex="1" parent="1">
          <mxGeometry x="860" y="360" width="130" height="50" as="geometry" />
        </mxCell>
        <mxCell id="BGIbfUMVSPYPuRkM84bQ-14" value="" style="ellipse;whiteSpace=wrap;html=1;" vertex="1" parent="1">
          <mxGeometry x="860" y="480" width="130" height="50" as="geometry" />
        </mxCell>
        <mxCell id="BGIbfUMVSPYPuRkM84bQ-15" value="" style="ellipse;whiteSpace=wrap;html=1;" vertex="1" parent="1">
          <mxGeometry x="1010" y="360" width="130" height="50" as="geometry" />
        </mxCell>
        <mxCell id="BGIbfUMVSPYPuRkM84bQ-16" value="" style="ellipse;whiteSpace=wrap;html=1;" vertex="1" parent="1">
          <mxGeometry x="1520" y="360" width="130" height="50" as="geometry" />
        </mxCell>
        <mxCell id="BGIbfUMVSPYPuRkM84bQ-19" value="" style="ellipse;whiteSpace=wrap;html=1;" vertex="1" parent="1">
          <mxGeometry x="1320" y="370" width="130" height="50" as="geometry" />
        </mxCell>
        <mxCell id="BGIbfUMVSPYPuRkM84bQ-27" value="" style="ellipse;whiteSpace=wrap;html=1;" vertex="1" parent="1">
          <mxGeometry x="1150" y="360" width="130" height="50" as="geometry" />
        </mxCell>
        <mxCell id="BGIbfUMVSPYPuRkM84bQ-35" value="&amp;lt;&amp;lt;include&amp;gt;&amp;gt;" style="text;html=1;align=center;verticalAlign=middle;whiteSpace=wrap;rounded=0;" vertex="1" parent="1">
          <mxGeometry x="270" y="420" width="60" height="30" as="geometry" />
        </mxCell>
        <mxCell id="BGIbfUMVSPYPuRkM84bQ-36" value="&amp;lt;&amp;lt;include&amp;gt;&amp;gt;" style="text;html=1;align=center;verticalAlign=middle;whiteSpace=wrap;rounded=0;" vertex="1" parent="1">
          <mxGeometry x="750" y="420" width="60" height="30" as="geometry" />
        </mxCell>
        <mxCell id="BGIbfUMVSPYPuRkM84bQ-37" value="&amp;lt;&amp;lt;include&amp;gt;&amp;gt;" style="text;html=1;align=center;verticalAlign=middle;whiteSpace=wrap;rounded=0;" vertex="1" parent="1">
          <mxGeometry x="930" y="430" width="60" height="30" as="geometry" />
        </mxCell>
        <mxCell id="BGIbfUMVSPYPuRkM84bQ-38" value="Zgłoś problem" style="text;html=1;align=center;verticalAlign=middle;whiteSpace=wrap;rounded=0;" vertex="1" parent="1">
          <mxGeometry x="220" y="350" width="100" height="50" as="geometry" />
        </mxCell>
        <mxCell id="BGIbfUMVSPYPuRkM84bQ-39" value="Odbierz sprzęt" style="text;html=1;align=center;verticalAlign=middle;whiteSpace=wrap;rounded=0;" vertex="1" parent="1">
          <mxGeometry x="370" y="360" width="100" height="30" as="geometry" />
        </mxCell>
        <mxCell id="BGIbfUMVSPYPuRkM84bQ-40" value="Opłać usługę" style="text;html=1;align=center;verticalAlign=middle;whiteSpace=wrap;rounded=0;" vertex="1" parent="1">
          <mxGeometry x="520" y="360" width="110" height="30" as="geometry" />
        </mxCell>
        <mxCell id="BGIbfUMVSPYPuRkM84bQ-41" value="Wysyłaj powiadomienia" style="text;html=1;align=center;verticalAlign=middle;whiteSpace=wrap;rounded=0;" vertex="1" parent="1">
          <mxGeometry x="250" y="500" width="130" height="30" as="geometry" />
        </mxCell>
        <mxCell id="BGIbfUMVSPYPuRkM84bQ-42" value="Oblicz koszt napraw" style="text;html=1;align=center;verticalAlign=middle;whiteSpace=wrap;rounded=0;" vertex="1" parent="1">
          <mxGeometry x="700" y="480" width="90" height="30" as="geometry" />
        </mxCell>
        <mxCell id="BGIbfUMVSPYPuRkM84bQ-43" value="Zarządzaj zleceniami naprawy" style="text;html=1;align=center;verticalAlign=middle;whiteSpace=wrap;rounded=0;" vertex="1" parent="1">
          <mxGeometry x="710" y="370" width="90" height="30" as="geometry" />
        </mxCell>
        <mxCell id="BGIbfUMVSPYPuRkM84bQ-44" value="Zamknij zlecenie" style="text;html=1;align=center;verticalAlign=middle;whiteSpace=wrap;rounded=0;" vertex="1" parent="1">
          <mxGeometry x="885" y="370" width="85" height="30" as="geometry" />
        </mxCell>
        <mxCell id="BGIbfUMVSPYPuRkM84bQ-45" value="Archiwizuj dane" style="text;html=1;align=center;verticalAlign=middle;whiteSpace=wrap;rounded=0;" vertex="1" parent="1">
          <mxGeometry x="895" y="490" width="60" height="30" as="geometry" />
        </mxCell>
        <mxCell id="BGIbfUMVSPYPuRkM84bQ-46" value="Zarządzaj częściami zamiennymi" style="text;html=1;align=center;verticalAlign=middle;whiteSpace=wrap;rounded=0;" vertex="1" parent="1">
          <mxGeometry x="1010" y="360" width="130" height="50" as="geometry" />
        </mxCell>
        <mxCell id="BGIbfUMVSPYPuRkM84bQ-47" value="Wystaw fakturę" style="text;html=1;align=center;verticalAlign=middle;whiteSpace=wrap;rounded=0;" vertex="1" parent="1">
          <mxGeometry x="1170" y="370" width="100" height="30" as="geometry" />
        </mxCell>
        <mxCell id="BGIbfUMVSPYPuRkM84bQ-48" value="Napraw sprzęt" style="text;html=1;align=center;verticalAlign=middle;whiteSpace=wrap;rounded=0;" vertex="1" parent="1">
          <mxGeometry x="1340" y="380" width="100" height="30" as="geometry" />
        </mxCell>
        <mxCell id="BGIbfUMVSPYPuRkM84bQ-49" value="Testuj sprzęt oo naprawie" style="text;html=1;align=center;verticalAlign=middle;whiteSpace=wrap;rounded=0;" vertex="1" parent="1">
          <mxGeometry x="1530" y="370" width="110" height="30" as="geometry" />
        </mxCell>
      </root>
    </mxGraphModel>
  </diagram>
</mxfile>
